<svg width="512" height="512" viewBox="0 0 512 512" xmlns="http://www.w3.org/2000/svg">
  <defs>
    <linearGradient id="bgGrad" x1="0%" y1="0%" x2="0%" y2="100%">
      <stop offset="0%" style="stop-color:#4CAF50;stop-opacity:1" />
      <stop offset="100%" style="stop-color:#2E7D32;stop-opacity:1" />
    </linearGradient>
    <radialGradient id="headShadow" cx="50%" cy="40%" r="60%">
      <stop offset="0%" style="stop-color:#A0522D;stop-opacity:1" />
      <stop offset="100%" style="stop-color:#703610;stop-opacity:1" />
    </radialGradient>
    <radialGradient id="capGrad" cx="50%" cy="20%" r="80%">
      <stop offset="0%" style="stop-color:#D2B48C;stop-opacity:0.6" />
      <stop offset="100%" style="stop-color:#703610;stop-opacity:0" />
    </radialGradient>
  </defs>
  
  <rect width="512" height="512" rx="80" fill="url(#bgGrad)"/>
  <rect x="20" y="20" width="472" height="472" rx="70" fill="none" stroke="white" stroke-width="8" stroke-opacity="0.2"/>

  <rect x="50" y="270" width="412" height="14" rx="7" fill="#333"/>
  <rect x="30" y="210" width="35" height="140" rx="8" fill="#555"/>
  <rect x="75" y="210" width="20" height="140" rx="4" fill="#444"/>
  <rect x="447" y="210" width="35" height="140" rx="8" fill="#555"/>
  <rect x="417" y="210" width="20" height="140" rx="4" fill="#444"/>

  <path d="M256 140 C160 140 120 250 120 360 Q256 400 392 360 C392 250 352 140 256 140 Z" fill="url(#headShadow)" stroke="#4E280A" stroke-width="3"/>
  <path d="M256 140 C160 140 120 250 120 360 Q256 400 392 360 C392 250 352 140 256 140 Z" fill="url(#capGrad)" style="mix-blend-mode:lighten;"/>

  <rect x="148" y="220" width="216" height="40" rx="5" fill="#D32F2F"/>
  <rect x="148" y="233" width="216" height="14" fill="white"/>
  <ellipse cx="215" cy="310" rx="16" ry="24" fill="white"/>
  <circle cx="218" cy="315" r="7" fill="black"/>
  
  <ellipse cx="297" cy="310" rx="16" ry="24" fill="white"/>
  <circle cx="294" cy="315" r="7" fill="black"/>

  <path d="M185 285 L245 315" stroke="#1A1A1A" stroke-width="12" stroke-linecap="round"/>
  <path d="M327 285 L267 315" stroke="#1A1A1A" stroke-width="12" stroke-linecap="round"/>

  <path d="M200 375 Q256 365 312 375" fill="none" stroke="#1A1A1A" stroke-width="4" stroke-linecap="round"/>

  <ellipse cx="190" cy="415" rx="50" ry="32" fill="#4E280A"/>
  <ellipse cx="322" cy="415" rx="50" ry="32" fill="#4E280A"/>

  <g opacity="0.8">
    <path d="M145 300 Q130 315 145 330 Q160 315 145 300" fill="#B3E5FC"/>
    <path d="M367 300 Q382 315 367 330 Q352 315 367 300" fill="#B3E5FC"/>
    <circle cx="256" cy="450" r="5" fill="#81D4FA" opacity="0.3"/>
    <path d="M450 450 Q430 460 410 450" fill="none" stroke="#81D4FA" stroke-width="2" opacity="0.5"/>
  </g>
</svg>
