<svg width="512" height="512" viewBox="0 0 512 512" xmlns="http://www.w3.org/2000/svg">
  <defs>
    <linearGradient id="bgGrad" x1="0%" y1="0%" x2="0%" y2="100%">
      <stop offset="0%" style="stop-color:#4CAF50;stop-opacity:1" />
      <stop offset="100%" style="stop-color:#2E7D32;stop-opacity:1" />
    </linearGradient>
    <radialGradient id="headShadow" cx="50%" cy="40%" r="60%">
      <stop offset="0%" style="stop-color:#A0522D;stop-opacity:1" />
      <stop offset="100%" style="stop-color:#703610;stop-opacity:1" />
    </radialGradient>
  </defs>
  
  <rect width="512" height="512" rx="80" fill="url(#bgGrad)"/>
  <rect x="20" y="20" width="472" height="472" rx="70" fill="none" stroke="white" stroke-width="8" stroke-opacity="0.3"/>

  <rect x="50" y="270" width="412" height="14" rx="7" fill="#333"/>
  <rect x="30" y="210" width="35" height="140" rx="8" fill="#555"/>
  <rect x="75" y="210" width="20" height="140" rx="4" fill="#444"/>
  <rect x="447" y="210" width="35" height="140" rx="8" fill="#555"/>
  <rect x="417" y="210" width="20" height="140" rx="4" fill="#444"/>

  <path d="M256 140 C160 140 120 260 120 370 Q256 400 392 370 C392 260 352 140 256 140 Z" fill="url(#headShadow)" stroke="#4E280A" stroke-width="3"/>

  <rect x="148" y="220" width="216" height="40" rx="5" fill="#D32F2F"/>
  <rect x="148" y="233" width="216" height="14" fill="white"/>
  <circle cx="256" cy="240" r="11" fill="#D32F2F"/>

  <ellipse cx="215" cy="310" rx="18" ry="26" fill="white"/>
  <circle cx="218" cy="315" r="7" fill="black"/>
  
  <ellipse cx="297" cy="310" rx="18" ry="26" fill="white"/>
  <circle cx="294" cy="315" r="7" fill="black"/>

  <path d="M175 275 L245 305" stroke="#1A1A1A" stroke-width="16" stroke-linecap="round"/>
  <path d="M337 275 L267 305" stroke="#1A1A1A" stroke-width="16" stroke-linecap="round"/>

  <path d="M210 370 L225 340 L240 370 Z" fill="white"/>
  <path d="M272 370 L287 340 L302 370 Z" fill="white"/>
  <path d="M200 375 Q256 365 312 375" fill="none" stroke="#1A1A1A" stroke-width="4" stroke-linecap="round"/>

  <ellipse cx="190" cy="415" rx="50" ry="32" fill="#4E280A"/>
  <ellipse cx="322" cy="415" rx="50" ry="32" fill="#4E280A"/>

  <path d="M145 300 Q130 315 145 330 Q160 315 145 300" fill="#B3E5FC" opacity="0.8"/>
  <path d="M367 300 Q382 315 367 330 Q352 315 367 300" fill="#B3E5FC" opacity="0.8"/>
</svg>
